Coordinates

Units are S.I. units (second, meters, Newtons, ...)
If the header above contains a line with 'inDegrees', this indicates whether rotational values are in degrees (yes) or radians (no).

inDegrees=no
nColumns=21
nRows=22
DataType=double
version=3
OpenSimVersion=4.6-2026-03-31-d6972f9e6
endheader
time	/jointset/ground_pelvis/pelvis_tilt/value	/jointset/ground_pelvis/pelvis_list/value	/jointset/ground_pelvis/pelvis_rotation/value	/jointset/ground_pelvis/pelvis_tx/value	/jointset/ground_pelvis/pelvis_ty/value	/jointset/ground_pelvis/pelvis_tz/value	/jointset/hip_r/hip_flexion_r/value	/jointset/hip_r/hip_adduction_r/value	/jointset/hip_r/hip_rotation_r/value	/jointset/walker_knee_r/knee_angle_r/value	/jointset/patellofemoral_r/knee_angle_r_beta/value	/jointset/ankle_r/ankle_angle_r/value	/jointset/subtalar_r/subtalar_angle_r/value	/jointset/hip_l/hip_flexion_l/value	/jointset/hip_l/hip_adduction_l/value	/jointset/hip_l/hip_rotation_l/value	/jointset/walker_knee_l/knee_angle_l/value	/jointset/patellofemoral_l/knee_angle_l_beta/value	/jointset/ankle_l/ankle_angle_l/value	/jointset/subtalar_l/subtalar_angle_l/value
142.496	-0.1452121970854292	0.03915632493711721	5.090622271712564e-05	1.13335341060246	0.9332742128696055	-0.3186657121856254	0.5042957415665092	-0.1011994485964097	0.03174672360924644	1.341350473302809	1.341350472636101	-0.06404063974461331	-0.5615884411484803	0.1193300053164307	0.05648753116647614	0.01370731272087628	0.5356058312204577	0.5356058305700701	0.2950862312426812	-0.1980232314200528
142.5	-0.1492336010829441	0.03153817944138339	-0.006041474351808164	1.133373781388307	0.9359957610517099	-0.3185145490677087	0.5185609121831317	-0.08953961579177878	0.03016848290072041	1.315639646662106	1.315639646082554	-0.05674719125278416	-0.5509334035173309	0.1013070468688356	0.04813830569946312	0.01160933375816861	0.515060121836503	0.5150601211356415	0.2706136997047388	-0.2006812035173861
142.504	-0.1537013480257974	0.02390888068367479	-0.01211141249593353	1.133420742541863	0.9387003610729074	-0.3183662447040035	0.532256714499221	-0.0778556794392334	0.0281437499904466	1.288208536595141	1.288208536098568	-0.04995968478665645	-0.5406264159706672	0.08413931039496467	0.0398298749516776	0.009167647384391239	0.4949562799611847	0.4949562792484115	0.2446904729207382	-0.2030709135702447
142.508	-0.1585963148313334	0.01631205157680521	-0.01814937065127964	1.133492786068121	0.9413774542776352	-0.3182193523826808	0.5453554167136448	-0.0661928280422576	0.02573196471970237	1.259066137081559	1.259066136663559	-0.04375737064182035	-0.5307431023652828	0.06785293197168323	0.03158265683730315	0.006340919954418702	0.4753809588546241	0.4753809581651054	0.2174885342057609	-0.2050604011717189
142.512	-0.1638876354146285	0.008795792477208346	-0.02414686518577764	1.133589004429394	0.9440173149431533	-0.3180723832156985	0.5578194767351963	-0.05459913463750524	0.02299388525767758	1.228221242003753	1.228221241659954	-0.03819880484885789	-0.5213209424638302	0.05245465579425166	0.02342412511409701	0.003097154282237219	0.4564085508865062	0.4564085502511084	0.1891936615069633	-0.2065326644724519
142.516	-0.1695330824446796	0.001412618716920127	-0.03009571933313197	1.133709048992743	0.9466109286480258	-0.3179238935517698	0.5696023358509819	-0.04312621839256574	0.01998984222740774	1.195685045207257	1.195685044933367	-0.0333185297329265	-0.5123551393300834	0.03793233950606383	0.01538995335020061	-0.0005832646856428635	0.4381018034809977	0.4381018029259275	0.160003933044245	-0.2073899615679379
142.52	-0.1754795570070405	-0.005780916385982062	-0.03598748835527919	1.133853067996568	0.9491498768340494	-0.3177725530003176	0.5806495161172819	-0.03182946456505135	0.01677806180755412	1.161473954565898	1.161473954357482	-0.02912517554723547	-0.5037965313520799	0.02425572825407751	0.007524611509070018	-0.004704821474884893	0.4205127491796883	0.4205127487264455	0.1301277784617899	-0.2075578382274034
142.524	-0.181663733204551	-0.01272482491079592	-0.04181302630826577	1.134021623880281	0.9516262299062049	-0.3176171936735372	0.5909000594599768	-0.02076791327961846	0.01341305926098112	1.12561256861044	1.125612568462575	-0.02560095122222161	-0.4955516038446111	0.0113775826653974	-0.0001185315220210485	-0.009254561009817253	0.4036839855547691	0.4036839852201297	0.09978163002982339	-0.206988549878158
142.528	-0.1880130187398618	-0.01935643746751125	-0.04756217472659233	1.134215588633236	0.9540324394522205	-0.3174568403011628	0.6002884746956845	-0.01000390827250157	0.009944117589981283	1.088136779474356	1.088136779381459	-0.02270244991045538	-0.4874845662953079	-0.0007646170387513874	-0.00747756428623866	-0.01420041693163255	0.3876503792527036	0.3876503790485059	0.069187400621774	-0.2056634207654115
142.532	-0.1944469895759345	-0.02561127858214029	-0.05322358894168101	1.134436016908674	0.9563612198651761	-0.3172907195883924	0.6087473391243098	0.0003974750837190278	0.006413895951856197	1.049096947738794	1.049096947694857	-0.02036265613778659	-0.4794213808970835	-0.01224618806269654	-0.01448285506801201	-0.01949040376095239	0.3724412450706382	0.3724412450033637	0.03857005772186938	-0.203593738659802
142.536	-0.200879297396514	-0.03142408239759185	-0.05878473210495587	1.134684000942285	0.9586054245439216	-0.3171182484561172	0.6162104843460918	0.01036925725894228	0.002857234972348867	1.008561032682175	1.008561032681383	-0.0184940008449004	-0.4711555751188644	-0.02315200854242829	-0.02105835940546676	-0.02505283557739424	0.3580829382666534	0.3580829383369456	0.008155400632962139	-0.2008200383192755
142.54	-0.2072198514880844	-0.03672998780958507	-0.06423205177341987	1.134960517294943	0.9607579398370015	-0.316939004316744	0.622616434555191	0.01984367904325451	-0.0006997769180469523	0.9666174908414806	0.9666174908789191	-0.01699229406418075	-0.4624556529896154	-0.03357284326529585	-0.02712340694620782	-0.03079759897675396	0.3446016387484538	0.3446016389507049	-0.02183207804326719	-0.1974099344570752
142.544	-0.2133770025636202	-0.04146597491583418	-0.06955134150345338	1.135266279077114	0.9628116256453378	-0.3167526826369097	0.6279116595859754	0.02875367386853601	-0.004240428541541875	0.9233777183904129	0.9233777184625096	-0.01574136266345291	-0.4530738814097392	-0.04360168166729065	-0.0325949557072784	-0.03661840776385209	0.3320260024712426	0.3320260027933779	-0.05117147133292772	-0.1934548619230163
142.548	-0.2192595349260568	-0.04557262199986273	-0.0747282932316715	1.135601606195769	0.964759322214047	-0.316559046345498	0.6320532977110271	0.03703475950358456	-0.007757659789340051	0.8789778250321938	0.8789778251366471	-0.01461820613101074	-0.4427561394427377	-0.05333044919638481	-0.03739032063599145	-0.04239595204585802	0.320389376567812	0.3203893769915043	-0.07964804455951109	-0.1890661108209351
142.552	-0.2247784321651135	-0.04899618246031595	-0.07974922190947489	1.135966320257237	0.9665939236053206	-0.316357871757904	0.6350112269781786	0.04462733474566671	-0.01125393513625236	0.833579604111736	0.8335796042469648	-0.01349844634086863	-0.4312524350323857	-0.06284720944192924	-0.04143032332332252	-0.04800185788624076	0.3097314182263283	0.3097314187279522	-0.1070561421100753	-0.1843703958981701
142.556	-0.2298485124381961	-0.05169082592648289	-0.08460188485036683	1.136359664155264	0.9683085003995681	-0.3161488978368756	0.6367695770120694	0.05147918493948109	-0.01474067056632893	0.7873706689874954	0.7873706691518932	-0.01226181324412235	-0.4183276680186611	-0.07223374361313635	-0.04464267251476148	-0.05330333453375244	0.3000991180805951	0.3000991186331167	-0.1332022837276845	-0.1795049918942189
142.56	-0.2343900371845887	-0.0536208263360225	-0.08927628566332714	1.136780244843379	0.9698964494361756	-0.3159317865421262	0.6373278117772889	0.05754792278342391	-0.01823719292245799	0.7405637698766026	0.7405637700680167	-0.0107974132714967	-0.4037722455718312	-0.08156335601603248	-0.04696532716875508	-0.05816833239193105	0.2915472821126738	0.2915472826883581	-0.1579082856229246	-0.174612429702274
142.564	-0.2383303191559021	-0.05476254218978437	-0.09376537113621927	1.137226000120448	0.9713516541078981	-0.3157061004708744	0.6367014164232121	0.06280316468817251	-0.02176924625579985	0.6933952849650944	0.6933952851808141	-0.009008557850514784	-0.3874121982578385	-0.09089886207573834	-0.04834965014453709	-0.06247100492818298	0.2841384957512221	0.2841384963247215	-0.1810142842011642	-0.1698348990027968
142.568	-0.2416053023212051	-0.05510609930488773	-0.09806556090804525	1.137694191136734	0.9726686428962225	-0.3154713015860012	0.6349221606964877	0.06722832802359324	-0.02536708959627642	0.6461228733822484	0.6461228736195188	-0.006816959547994024	-0.3691184699012136	-0.1002907905735635	-0.048763223084945	-0.06609725283157501	0.2779425785983698	0.277942579149595	-0.2023815647056038	-0.1653086425448407
142.572	-0.244161066670153	-0.05465670574319042	-0.1021770652670154	1.138181421467082	0.973842735209012	-0.3152267727110153	0.6320379141235937	0.07082196509819677	-0.02906325728811117	0.5990223130397123	0.5990223132965657	-0.004166145420038605	-0.3488150666939433	-0.1097758530957537	-0.04819221655604398	-0.06895010759422807	0.2730355474383439	0.2730355479545452	-0.221895104433959	-0.1611586536701848
142.576	-0.245955186897449	-0.05343552705210875	-0.1061039514470875	1.138683683250183	0.9748701655867894	-0.3149718619109381	0.6281119936823641	0.07359855288527707	-0.03289007972194441	0.5523835967611374	0.5523835970372406	-0.001023987669215593	-0.3264857752436103	-0.1193757581560176	-0.04664321308702078	-0.07095468301715119	0.2694981126542098	0.269498113130935	-0.2394657567254236	-0.1574939458521265
142.58	-0.2469578511298614	-0.05148004618752425	-0.1098539304893715	1.139196430805193	0.9757481788933412	-0.3147059486850101	0.6232220271292346	0.07558866132495858	-0.03687708553207983	0.506506406304482	0.5065064066016829	0.002615723787617577	-0.3021791989147816	-0.1290964685438651	-0.0441443788622504	-0.07206240621164949	0.2674137485670626	0.2674137490080155	-0.2550320004422146	-0.1544036173849869
